%TF.GenerationSoftware,KiCad,Pcbnew,5.1.9-73d0e3b20d~88~ubuntu20.10.1*%
%TF.CreationDate,2021-02-23T00:56:54+01:00*%
%TF.ProjectId,valve-adapter-noval,76616c76-652d-4616-9461-707465722d6e,rev?*%
%TF.SameCoordinates,Original*%
%TF.FileFunction,Legend,Top*%
%TF.FilePolarity,Positive*%
%FSLAX46Y46*%
G04 Gerber Fmt 4.6, Leading zero omitted, Abs format (unit mm)*
G04 Created by KiCad (PCBNEW 5.1.9-73d0e3b20d~88~ubuntu20.10.1) date 2021-02-23 00:56:54*
%MOMM*%
%LPD*%
G01*
G04 APERTURE LIST*
%ADD10C,0.200000*%
%ADD11C,0.300000*%
%ADD12C,0.120000*%
%ADD13C,0.010000*%
G04 APERTURE END LIST*
D10*
X173952380Y-111666666D02*
X174952380Y-111333333D01*
X173952380Y-111000000D01*
X174952380Y-110238095D02*
X174428571Y-110238095D01*
X174333333Y-110285714D01*
X174285714Y-110380952D01*
X174285714Y-110571428D01*
X174333333Y-110666666D01*
X174904761Y-110238095D02*
X174952380Y-110333333D01*
X174952380Y-110571428D01*
X174904761Y-110666666D01*
X174809523Y-110714285D01*
X174714285Y-110714285D01*
X174619047Y-110666666D01*
X174571428Y-110571428D01*
X174571428Y-110333333D01*
X174523809Y-110238095D01*
X174952380Y-109619047D02*
X174904761Y-109714285D01*
X174809523Y-109761904D01*
X173952380Y-109761904D01*
X174285714Y-109333333D02*
X174952380Y-109095238D01*
X174285714Y-108857142D01*
X174904761Y-108095238D02*
X174952380Y-108190476D01*
X174952380Y-108380952D01*
X174904761Y-108476190D01*
X174809523Y-108523809D01*
X174428571Y-108523809D01*
X174333333Y-108476190D01*
X174285714Y-108380952D01*
X174285714Y-108190476D01*
X174333333Y-108095238D01*
X174428571Y-108047619D01*
X174523809Y-108047619D01*
X174619047Y-108523809D01*
X174952380Y-106857142D02*
X173952380Y-106857142D01*
X174333333Y-106857142D02*
X174285714Y-106761904D01*
X174285714Y-106571428D01*
X174333333Y-106476190D01*
X174380952Y-106428571D01*
X174476190Y-106380952D01*
X174761904Y-106380952D01*
X174857142Y-106428571D01*
X174904761Y-106476190D01*
X174952380Y-106571428D01*
X174952380Y-106761904D01*
X174904761Y-106857142D01*
X174952380Y-105952380D02*
X174285714Y-105952380D01*
X174476190Y-105952380D02*
X174380952Y-105904761D01*
X174333333Y-105857142D01*
X174285714Y-105761904D01*
X174285714Y-105666666D01*
X174904761Y-104952380D02*
X174952380Y-105047619D01*
X174952380Y-105238095D01*
X174904761Y-105333333D01*
X174809523Y-105380952D01*
X174428571Y-105380952D01*
X174333333Y-105333333D01*
X174285714Y-105238095D01*
X174285714Y-105047619D01*
X174333333Y-104952380D01*
X174428571Y-104904761D01*
X174523809Y-104904761D01*
X174619047Y-105380952D01*
X174952380Y-104047619D02*
X174428571Y-104047619D01*
X174333333Y-104095238D01*
X174285714Y-104190476D01*
X174285714Y-104380952D01*
X174333333Y-104476190D01*
X174904761Y-104047619D02*
X174952380Y-104142857D01*
X174952380Y-104380952D01*
X174904761Y-104476190D01*
X174809523Y-104523809D01*
X174714285Y-104523809D01*
X174619047Y-104476190D01*
X174571428Y-104380952D01*
X174571428Y-104142857D01*
X174523809Y-104047619D01*
X174952380Y-103142857D02*
X173952380Y-103142857D01*
X174904761Y-103142857D02*
X174952380Y-103238095D01*
X174952380Y-103428571D01*
X174904761Y-103523809D01*
X174857142Y-103571428D01*
X174761904Y-103619047D01*
X174476190Y-103619047D01*
X174380952Y-103571428D01*
X174333333Y-103523809D01*
X174285714Y-103428571D01*
X174285714Y-103238095D01*
X174333333Y-103142857D01*
X174952380Y-102666666D02*
X173952380Y-102666666D01*
X174333333Y-102666666D02*
X174285714Y-102571428D01*
X174285714Y-102380952D01*
X174333333Y-102285714D01*
X174380952Y-102238095D01*
X174476190Y-102190476D01*
X174761904Y-102190476D01*
X174857142Y-102238095D01*
X174904761Y-102285714D01*
X174952380Y-102380952D01*
X174952380Y-102571428D01*
X174904761Y-102666666D01*
X174952380Y-101619047D02*
X174904761Y-101714285D01*
X174857142Y-101761904D01*
X174761904Y-101809523D01*
X174476190Y-101809523D01*
X174380952Y-101761904D01*
X174333333Y-101714285D01*
X174285714Y-101619047D01*
X174285714Y-101476190D01*
X174333333Y-101380952D01*
X174380952Y-101333333D01*
X174476190Y-101285714D01*
X174761904Y-101285714D01*
X174857142Y-101333333D01*
X174904761Y-101380952D01*
X174952380Y-101476190D01*
X174952380Y-101619047D01*
X174952380Y-100428571D02*
X174428571Y-100428571D01*
X174333333Y-100476190D01*
X174285714Y-100571428D01*
X174285714Y-100761904D01*
X174333333Y-100857142D01*
X174904761Y-100428571D02*
X174952380Y-100523809D01*
X174952380Y-100761904D01*
X174904761Y-100857142D01*
X174809523Y-100904761D01*
X174714285Y-100904761D01*
X174619047Y-100857142D01*
X174571428Y-100761904D01*
X174571428Y-100523809D01*
X174523809Y-100428571D01*
X174952380Y-99952380D02*
X174285714Y-99952380D01*
X174476190Y-99952380D02*
X174380952Y-99904761D01*
X174333333Y-99857142D01*
X174285714Y-99761904D01*
X174285714Y-99666666D01*
X174952380Y-98904761D02*
X173952380Y-98904761D01*
X174904761Y-98904761D02*
X174952380Y-99000000D01*
X174952380Y-99190476D01*
X174904761Y-99285714D01*
X174857142Y-99333333D01*
X174761904Y-99380952D01*
X174476190Y-99380952D01*
X174380952Y-99333333D01*
X174333333Y-99285714D01*
X174285714Y-99190476D01*
X174285714Y-99000000D01*
X174333333Y-98904761D01*
X174952380Y-97238095D02*
X174428571Y-97238095D01*
X174333333Y-97285714D01*
X174285714Y-97380952D01*
X174285714Y-97571428D01*
X174333333Y-97666666D01*
X174904761Y-97238095D02*
X174952380Y-97333333D01*
X174952380Y-97571428D01*
X174904761Y-97666666D01*
X174809523Y-97714285D01*
X174714285Y-97714285D01*
X174619047Y-97666666D01*
X174571428Y-97571428D01*
X174571428Y-97333333D01*
X174523809Y-97238095D01*
X174952380Y-96333333D02*
X173952380Y-96333333D01*
X174904761Y-96333333D02*
X174952380Y-96428571D01*
X174952380Y-96619047D01*
X174904761Y-96714285D01*
X174857142Y-96761904D01*
X174761904Y-96809523D01*
X174476190Y-96809523D01*
X174380952Y-96761904D01*
X174333333Y-96714285D01*
X174285714Y-96619047D01*
X174285714Y-96428571D01*
X174333333Y-96333333D01*
X174952380Y-95428571D02*
X174428571Y-95428571D01*
X174333333Y-95476190D01*
X174285714Y-95571428D01*
X174285714Y-95761904D01*
X174333333Y-95857142D01*
X174904761Y-95428571D02*
X174952380Y-95523809D01*
X174952380Y-95761904D01*
X174904761Y-95857142D01*
X174809523Y-95904761D01*
X174714285Y-95904761D01*
X174619047Y-95857142D01*
X174571428Y-95761904D01*
X174571428Y-95523809D01*
X174523809Y-95428571D01*
X174285714Y-94952380D02*
X175285714Y-94952380D01*
X174333333Y-94952380D02*
X174285714Y-94857142D01*
X174285714Y-94666666D01*
X174333333Y-94571428D01*
X174380952Y-94523809D01*
X174476190Y-94476190D01*
X174761904Y-94476190D01*
X174857142Y-94523809D01*
X174904761Y-94571428D01*
X174952380Y-94666666D01*
X174952380Y-94857142D01*
X174904761Y-94952380D01*
X174285714Y-94190476D02*
X174285714Y-93809523D01*
X173952380Y-94047619D02*
X174809523Y-94047619D01*
X174904761Y-94000000D01*
X174952380Y-93904761D01*
X174952380Y-93809523D01*
X174904761Y-93095238D02*
X174952380Y-93190476D01*
X174952380Y-93380952D01*
X174904761Y-93476190D01*
X174809523Y-93523809D01*
X174428571Y-93523809D01*
X174333333Y-93476190D01*
X174285714Y-93380952D01*
X174285714Y-93190476D01*
X174333333Y-93095238D01*
X174428571Y-93047619D01*
X174523809Y-93047619D01*
X174619047Y-93523809D01*
X174952380Y-92619047D02*
X174285714Y-92619047D01*
X174476190Y-92619047D02*
X174380952Y-92571428D01*
X174333333Y-92523809D01*
X174285714Y-92428571D01*
X174285714Y-92333333D01*
X151285714Y-109452380D02*
X152095238Y-109452380D01*
X152190476Y-109500000D01*
X152238095Y-109547619D01*
X152285714Y-109642857D01*
X152285714Y-109785714D01*
X152238095Y-109880952D01*
X151904761Y-109452380D02*
X151952380Y-109547619D01*
X151952380Y-109738095D01*
X151904761Y-109833333D01*
X151857142Y-109880952D01*
X151761904Y-109928571D01*
X151476190Y-109928571D01*
X151380952Y-109880952D01*
X151333333Y-109833333D01*
X151285714Y-109738095D01*
X151285714Y-109547619D01*
X151333333Y-109452380D01*
X151952380Y-108976190D02*
X151285714Y-108976190D01*
X150952380Y-108976190D02*
X151000000Y-109023809D01*
X151047619Y-108976190D01*
X151000000Y-108928571D01*
X150952380Y-108976190D01*
X151047619Y-108976190D01*
X151285714Y-108642857D02*
X151285714Y-108261904D01*
X150952380Y-108500000D02*
X151809523Y-108500000D01*
X151904761Y-108452380D01*
X151952380Y-108357142D01*
X151952380Y-108261904D01*
X151952380Y-107928571D02*
X150952380Y-107928571D01*
X151952380Y-107500000D02*
X151428571Y-107500000D01*
X151333333Y-107547619D01*
X151285714Y-107642857D01*
X151285714Y-107785714D01*
X151333333Y-107880952D01*
X151380952Y-107928571D01*
X151285714Y-106595238D02*
X151952380Y-106595238D01*
X151285714Y-107023809D02*
X151809523Y-107023809D01*
X151904761Y-106976190D01*
X151952380Y-106880952D01*
X151952380Y-106738095D01*
X151904761Y-106642857D01*
X151857142Y-106595238D01*
X151952380Y-106119047D02*
X150952380Y-106119047D01*
X151333333Y-106119047D02*
X151285714Y-106023809D01*
X151285714Y-105833333D01*
X151333333Y-105738095D01*
X151380952Y-105690476D01*
X151476190Y-105642857D01*
X151761904Y-105642857D01*
X151857142Y-105690476D01*
X151904761Y-105738095D01*
X151952380Y-105833333D01*
X151952380Y-106023809D01*
X151904761Y-106119047D01*
X151857142Y-105214285D02*
X151904761Y-105166666D01*
X151952380Y-105214285D01*
X151904761Y-105261904D01*
X151857142Y-105214285D01*
X151952380Y-105214285D01*
X151904761Y-104309523D02*
X151952380Y-104404761D01*
X151952380Y-104595238D01*
X151904761Y-104690476D01*
X151857142Y-104738095D01*
X151761904Y-104785714D01*
X151476190Y-104785714D01*
X151380952Y-104738095D01*
X151333333Y-104690476D01*
X151285714Y-104595238D01*
X151285714Y-104404761D01*
X151333333Y-104309523D01*
X151952380Y-103738095D02*
X151904761Y-103833333D01*
X151857142Y-103880952D01*
X151761904Y-103928571D01*
X151476190Y-103928571D01*
X151380952Y-103880952D01*
X151333333Y-103833333D01*
X151285714Y-103738095D01*
X151285714Y-103595238D01*
X151333333Y-103500000D01*
X151380952Y-103452380D01*
X151476190Y-103404761D01*
X151761904Y-103404761D01*
X151857142Y-103452380D01*
X151904761Y-103500000D01*
X151952380Y-103595238D01*
X151952380Y-103738095D01*
X151952380Y-102976190D02*
X151285714Y-102976190D01*
X151380952Y-102976190D02*
X151333333Y-102928571D01*
X151285714Y-102833333D01*
X151285714Y-102690476D01*
X151333333Y-102595238D01*
X151428571Y-102547619D01*
X151952380Y-102547619D01*
X151428571Y-102547619D02*
X151333333Y-102500000D01*
X151285714Y-102404761D01*
X151285714Y-102261904D01*
X151333333Y-102166666D01*
X151428571Y-102119047D01*
X151952380Y-102119047D01*
X150904761Y-100928571D02*
X152190476Y-101785714D01*
X151285714Y-100595238D02*
X152285714Y-100595238D01*
X151333333Y-100595238D02*
X151285714Y-100500000D01*
X151285714Y-100309523D01*
X151333333Y-100214285D01*
X151380952Y-100166666D01*
X151476190Y-100119047D01*
X151761904Y-100119047D01*
X151857142Y-100166666D01*
X151904761Y-100214285D01*
X151952380Y-100309523D01*
X151952380Y-100500000D01*
X151904761Y-100595238D01*
X151952380Y-99547619D02*
X151904761Y-99642857D01*
X151857142Y-99690476D01*
X151761904Y-99738095D01*
X151476190Y-99738095D01*
X151380952Y-99690476D01*
X151333333Y-99642857D01*
X151285714Y-99547619D01*
X151285714Y-99404761D01*
X151333333Y-99309523D01*
X151380952Y-99261904D01*
X151476190Y-99214285D01*
X151761904Y-99214285D01*
X151857142Y-99261904D01*
X151904761Y-99309523D01*
X151952380Y-99404761D01*
X151952380Y-99547619D01*
X151952380Y-98642857D02*
X151904761Y-98738095D01*
X151809523Y-98785714D01*
X150952380Y-98785714D01*
X151285714Y-98357142D02*
X151952380Y-98119047D01*
X151285714Y-97880952D02*
X151952380Y-98119047D01*
X152190476Y-98214285D01*
X152238095Y-98261904D01*
X152285714Y-98357142D01*
X151952380Y-97500000D02*
X150952380Y-97500000D01*
X151571428Y-97404761D02*
X151952380Y-97119047D01*
X151285714Y-97119047D02*
X151666666Y-97500000D01*
X151952380Y-96690476D02*
X151285714Y-96690476D01*
X150952380Y-96690476D02*
X151000000Y-96738095D01*
X151047619Y-96690476D01*
X151000000Y-96642857D01*
X150952380Y-96690476D01*
X151047619Y-96690476D01*
X151285714Y-96357142D02*
X151285714Y-95976190D01*
X150952380Y-96214285D02*
X151809523Y-96214285D01*
X151904761Y-96166666D01*
X151952380Y-96071428D01*
X151952380Y-95976190D01*
X173209523Y-118452380D02*
X173400000Y-118452380D01*
X173495238Y-118404761D01*
X173542857Y-118357142D01*
X173638095Y-118214285D01*
X173685714Y-118023809D01*
X173685714Y-117642857D01*
X173638095Y-117547619D01*
X173590476Y-117500000D01*
X173495238Y-117452380D01*
X173304761Y-117452380D01*
X173209523Y-117500000D01*
X173161904Y-117547619D01*
X173114285Y-117642857D01*
X173114285Y-117880952D01*
X173161904Y-117976190D01*
X173209523Y-118023809D01*
X173304761Y-118071428D01*
X173495238Y-118071428D01*
X173590476Y-118023809D01*
X173638095Y-117976190D01*
X173685714Y-117880952D01*
X170704761Y-117880952D02*
X170609523Y-117833333D01*
X170561904Y-117785714D01*
X170514285Y-117690476D01*
X170514285Y-117642857D01*
X170561904Y-117547619D01*
X170609523Y-117500000D01*
X170704761Y-117452380D01*
X170895238Y-117452380D01*
X170990476Y-117500000D01*
X171038095Y-117547619D01*
X171085714Y-117642857D01*
X171085714Y-117690476D01*
X171038095Y-117785714D01*
X170990476Y-117833333D01*
X170895238Y-117880952D01*
X170704761Y-117880952D01*
X170609523Y-117928571D01*
X170561904Y-117976190D01*
X170514285Y-118071428D01*
X170514285Y-118261904D01*
X170561904Y-118357142D01*
X170609523Y-118404761D01*
X170704761Y-118452380D01*
X170895238Y-118452380D01*
X170990476Y-118404761D01*
X171038095Y-118357142D01*
X171085714Y-118261904D01*
X171085714Y-118071428D01*
X171038095Y-117976190D01*
X170990476Y-117928571D01*
X170895238Y-117880952D01*
X167866666Y-117452380D02*
X168533333Y-117452380D01*
X168104761Y-118452380D01*
X165890476Y-117452380D02*
X165700000Y-117452380D01*
X165604761Y-117500000D01*
X165557142Y-117547619D01*
X165461904Y-117690476D01*
X165414285Y-117880952D01*
X165414285Y-118261904D01*
X165461904Y-118357142D01*
X165509523Y-118404761D01*
X165604761Y-118452380D01*
X165795238Y-118452380D01*
X165890476Y-118404761D01*
X165938095Y-118357142D01*
X165985714Y-118261904D01*
X165985714Y-118023809D01*
X165938095Y-117928571D01*
X165890476Y-117880952D01*
X165795238Y-117833333D01*
X165604761Y-117833333D01*
X165509523Y-117880952D01*
X165461904Y-117928571D01*
X165414285Y-118023809D01*
X163438095Y-117452380D02*
X162961904Y-117452380D01*
X162914285Y-117928571D01*
X162961904Y-117880952D01*
X163057142Y-117833333D01*
X163295238Y-117833333D01*
X163390476Y-117880952D01*
X163438095Y-117928571D01*
X163485714Y-118023809D01*
X163485714Y-118261904D01*
X163438095Y-118357142D01*
X163390476Y-118404761D01*
X163295238Y-118452380D01*
X163057142Y-118452380D01*
X162961904Y-118404761D01*
X162914285Y-118357142D01*
X160790476Y-117785714D02*
X160790476Y-118452380D01*
X160552380Y-117404761D02*
X160314285Y-118119047D01*
X160933333Y-118119047D01*
X157766666Y-117452380D02*
X158385714Y-117452380D01*
X158052380Y-117833333D01*
X158195238Y-117833333D01*
X158290476Y-117880952D01*
X158338095Y-117928571D01*
X158385714Y-118023809D01*
X158385714Y-118261904D01*
X158338095Y-118357142D01*
X158290476Y-118404761D01*
X158195238Y-118452380D01*
X157909523Y-118452380D01*
X157814285Y-118404761D01*
X157766666Y-118357142D01*
X155414285Y-117547619D02*
X155461904Y-117500000D01*
X155557142Y-117452380D01*
X155795238Y-117452380D01*
X155890476Y-117500000D01*
X155938095Y-117547619D01*
X155985714Y-117642857D01*
X155985714Y-117738095D01*
X155938095Y-117880952D01*
X155366666Y-118452380D01*
X155985714Y-118452380D01*
X153285714Y-118452380D02*
X152714285Y-118452380D01*
X153000000Y-118452380D02*
X153000000Y-117452380D01*
X152904761Y-117595238D01*
X152809523Y-117690476D01*
X152714285Y-117738095D01*
D11*
X153642857Y-91078571D02*
X153642857Y-89578571D01*
X154500000Y-91078571D01*
X154500000Y-89578571D01*
X155428571Y-91078571D02*
X155285714Y-91007142D01*
X155214285Y-90935714D01*
X155142857Y-90792857D01*
X155142857Y-90364285D01*
X155214285Y-90221428D01*
X155285714Y-90150000D01*
X155428571Y-90078571D01*
X155642857Y-90078571D01*
X155785714Y-90150000D01*
X155857142Y-90221428D01*
X155928571Y-90364285D01*
X155928571Y-90792857D01*
X155857142Y-90935714D01*
X155785714Y-91007142D01*
X155642857Y-91078571D01*
X155428571Y-91078571D01*
X156428571Y-90078571D02*
X156785714Y-91078571D01*
X157142857Y-90078571D01*
X158357142Y-91078571D02*
X158357142Y-90292857D01*
X158285714Y-90150000D01*
X158142857Y-90078571D01*
X157857142Y-90078571D01*
X157714285Y-90150000D01*
X158357142Y-91007142D02*
X158214285Y-91078571D01*
X157857142Y-91078571D01*
X157714285Y-91007142D01*
X157642857Y-90864285D01*
X157642857Y-90721428D01*
X157714285Y-90578571D01*
X157857142Y-90507142D01*
X158214285Y-90507142D01*
X158357142Y-90435714D01*
X159285714Y-91078571D02*
X159142857Y-91007142D01*
X159071428Y-90864285D01*
X159071428Y-89578571D01*
X161500000Y-90292857D02*
X161714285Y-90364285D01*
X161785714Y-90435714D01*
X161857142Y-90578571D01*
X161857142Y-90792857D01*
X161785714Y-90935714D01*
X161714285Y-91007142D01*
X161571428Y-91078571D01*
X161000000Y-91078571D01*
X161000000Y-89578571D01*
X161500000Y-89578571D01*
X161642857Y-89650000D01*
X161714285Y-89721428D01*
X161785714Y-89864285D01*
X161785714Y-90007142D01*
X161714285Y-90150000D01*
X161642857Y-90221428D01*
X161500000Y-90292857D01*
X161000000Y-90292857D01*
X162571428Y-91078571D02*
X162857142Y-91078571D01*
X163000000Y-91007142D01*
X163071428Y-90935714D01*
X163214285Y-90721428D01*
X163285714Y-90435714D01*
X163285714Y-89864285D01*
X163214285Y-89721428D01*
X163142857Y-89650000D01*
X163000000Y-89578571D01*
X162714285Y-89578571D01*
X162571428Y-89650000D01*
X162500000Y-89721428D01*
X162428571Y-89864285D01*
X162428571Y-90221428D01*
X162500000Y-90364285D01*
X162571428Y-90435714D01*
X162714285Y-90507142D01*
X163000000Y-90507142D01*
X163142857Y-90435714D01*
X163214285Y-90364285D01*
X163285714Y-90221428D01*
X163857142Y-90650000D02*
X164571428Y-90650000D01*
X163714285Y-91078571D02*
X164214285Y-89578571D01*
X164714285Y-91078571D01*
X166428571Y-91078571D02*
X166714285Y-91078571D01*
X166857142Y-91007142D01*
X166928571Y-90935714D01*
X167071428Y-90721428D01*
X167142857Y-90435714D01*
X167142857Y-89864285D01*
X167071428Y-89721428D01*
X167000000Y-89650000D01*
X166857142Y-89578571D01*
X166571428Y-89578571D01*
X166428571Y-89650000D01*
X166357142Y-89721428D01*
X166285714Y-89864285D01*
X166285714Y-90221428D01*
X166357142Y-90364285D01*
X166428571Y-90435714D01*
X166571428Y-90507142D01*
X166857142Y-90507142D01*
X167000000Y-90435714D01*
X167071428Y-90364285D01*
X167142857Y-90221428D01*
X167785714Y-90507142D02*
X168928571Y-90507142D01*
X169642857Y-90078571D02*
X169642857Y-91578571D01*
X169642857Y-90150000D02*
X169785714Y-90078571D01*
X170071428Y-90078571D01*
X170214285Y-90150000D01*
X170285714Y-90221428D01*
X170357142Y-90364285D01*
X170357142Y-90792857D01*
X170285714Y-90935714D01*
X170214285Y-91007142D01*
X170071428Y-91078571D01*
X169785714Y-91078571D01*
X169642857Y-91007142D01*
X171000000Y-91078571D02*
X171000000Y-90078571D01*
X171000000Y-89578571D02*
X170928571Y-89650000D01*
X171000000Y-89721428D01*
X171071428Y-89650000D01*
X171000000Y-89578571D01*
X171000000Y-89721428D01*
X171714285Y-90078571D02*
X171714285Y-91078571D01*
X171714285Y-90221428D02*
X171785714Y-90150000D01*
X171928571Y-90078571D01*
X172142857Y-90078571D01*
X172285714Y-90150000D01*
X172357142Y-90292857D01*
X172357142Y-91078571D01*
D12*
%TO.C,U1*%
X173239067Y-102000000D02*
G75*
G03*
X173239067Y-102000000I-10239067J0D01*
G01*
%TO.C,J1*%
X151670000Y-116330000D02*
X151670000Y-115000000D01*
X153000000Y-116330000D02*
X151670000Y-116330000D01*
X154270000Y-116330000D02*
X154270000Y-113670000D01*
X154270000Y-113670000D02*
X174650000Y-113670000D01*
X154270000Y-116330000D02*
X174650000Y-116330000D01*
X174650000Y-116330000D02*
X174650000Y-113670000D01*
D13*
%TO.C,G\u002A\u002A\u002A*%
G36*
X164635287Y-92514797D02*
G01*
X164793556Y-92577035D01*
X164973386Y-92647263D01*
X165130150Y-92634098D01*
X165164541Y-92622128D01*
X165379765Y-92598189D01*
X165572081Y-92675652D01*
X165717726Y-92828921D01*
X165792936Y-93032401D01*
X165773949Y-93260496D01*
X165769519Y-93273763D01*
X165738292Y-93407606D01*
X165746405Y-93554113D01*
X165798833Y-93754500D01*
X165843839Y-93889570D01*
X165906867Y-94092468D01*
X165948753Y-94290666D01*
X165973445Y-94518377D01*
X165984893Y-94809811D01*
X165987161Y-95131250D01*
X165985244Y-95475995D01*
X165975528Y-95734252D01*
X165951203Y-95946529D01*
X165905460Y-96153334D01*
X165831491Y-96395174D01*
X165722486Y-96712559D01*
X165720323Y-96718750D01*
X165609585Y-97050960D01*
X165509139Y-97379939D01*
X165430575Y-97666035D01*
X165387537Y-97857537D01*
X165325115Y-98449716D01*
X165330580Y-99091214D01*
X165399350Y-99742512D01*
X165526841Y-100364094D01*
X165708471Y-100916443D01*
X165754726Y-101023615D01*
X165853232Y-101244802D01*
X165903007Y-101382012D01*
X165908111Y-101466772D01*
X165872602Y-101530615D01*
X165826259Y-101579240D01*
X165733125Y-101698338D01*
X165700246Y-101782875D01*
X165709076Y-101864272D01*
X165734878Y-102054284D01*
X165775195Y-102336018D01*
X165827572Y-102692584D01*
X165889552Y-103107091D01*
X165958679Y-103562648D01*
X165966101Y-103611186D01*
X166034532Y-104071651D01*
X166093518Y-104494512D01*
X166140961Y-104862535D01*
X166174766Y-105158487D01*
X166192834Y-105365133D01*
X166193069Y-105465241D01*
X166192097Y-105468561D01*
X166163426Y-105510097D01*
X166101790Y-105539582D01*
X165988233Y-105559014D01*
X165803799Y-105570395D01*
X165529532Y-105575722D01*
X165164242Y-105577000D01*
X164789382Y-105575909D01*
X164523181Y-105571240D01*
X164347309Y-105560894D01*
X164243434Y-105542773D01*
X164193225Y-105514780D01*
X164178350Y-105474815D01*
X164178000Y-105464129D01*
X164238945Y-105250528D01*
X164416656Y-105068282D01*
X164703445Y-104923439D01*
X164960355Y-104848593D01*
X165266461Y-104778781D01*
X164923670Y-104542692D01*
X164681219Y-104357396D01*
X164388216Y-104106025D01*
X164076877Y-103818830D01*
X163779421Y-103526057D01*
X163528066Y-103257955D01*
X163421367Y-103132250D01*
X163217031Y-102878250D01*
X162964908Y-103164000D01*
X162712586Y-103507790D01*
X162479042Y-103932210D01*
X162286981Y-104390951D01*
X162171000Y-104783250D01*
X162113101Y-105030034D01*
X162059748Y-105247391D01*
X162022978Y-105386500D01*
X161976800Y-105545250D01*
X160950150Y-105562697D01*
X160513724Y-105566401D01*
X160200105Y-105560420D01*
X160005453Y-105544564D01*
X159925931Y-105518644D01*
X159923500Y-105511919D01*
X159981952Y-105309832D01*
X160138072Y-105118030D01*
X160363001Y-104957778D01*
X160627882Y-104850344D01*
X160867332Y-104816394D01*
X161010431Y-104806790D01*
X161059178Y-104755001D01*
X161046167Y-104622622D01*
X161043655Y-104608625D01*
X160971098Y-104037412D01*
X160957057Y-103478901D01*
X161001835Y-102975603D01*
X161030885Y-102822939D01*
X161161553Y-102380734D01*
X161352946Y-101920645D01*
X161583450Y-101487055D01*
X161831451Y-101124346D01*
X161895175Y-101048213D01*
X162154819Y-100753242D01*
X162056865Y-100259996D01*
X162001994Y-99966687D01*
X161951786Y-99669234D01*
X161916989Y-99431373D01*
X161916654Y-99428699D01*
X161888529Y-99234645D01*
X161854501Y-99139513D01*
X161795352Y-99115927D01*
X161708574Y-99132283D01*
X161485114Y-99184342D01*
X161194072Y-99246398D01*
X160862342Y-99313371D01*
X160516815Y-99380183D01*
X160184384Y-99441757D01*
X159891943Y-99493015D01*
X159666383Y-99528877D01*
X159534598Y-99544267D01*
X159525536Y-99544500D01*
X159404087Y-99512967D01*
X159208889Y-99429885D01*
X158971771Y-99312526D01*
X158724561Y-99178165D01*
X158499089Y-99044073D01*
X158327184Y-98927524D01*
X158241921Y-98847895D01*
X158263469Y-98776521D01*
X158360692Y-98672696D01*
X158383019Y-98654392D01*
X158479870Y-98588246D01*
X158582723Y-98552202D01*
X158719584Y-98545565D01*
X158918461Y-98567644D01*
X159207362Y-98617748D01*
X159284000Y-98632126D01*
X159370929Y-98639707D01*
X159474423Y-98626249D01*
X159611255Y-98585176D01*
X159798201Y-98509914D01*
X160052033Y-98393888D01*
X160389525Y-98230524D01*
X160696875Y-98078337D01*
X161052120Y-97899691D01*
X161365353Y-97738707D01*
X161619903Y-97604242D01*
X161799098Y-97505150D01*
X161886265Y-97450288D01*
X161892000Y-97443525D01*
X161843646Y-97395221D01*
X161708249Y-97282162D01*
X161500308Y-97115873D01*
X161234320Y-96907878D01*
X160924783Y-96669701D01*
X160776003Y-96556396D01*
X159660006Y-95709164D01*
X159379003Y-95131528D01*
X159260365Y-94880464D01*
X159166495Y-94668128D01*
X159109514Y-94522736D01*
X159098000Y-94477446D01*
X159158025Y-94425939D01*
X159328836Y-94402187D01*
X159392722Y-94401000D01*
X159594819Y-94415277D01*
X159733334Y-94476037D01*
X159867722Y-94607375D01*
X160034155Y-94797107D01*
X160204299Y-94989940D01*
X160223875Y-95012026D01*
X160317503Y-95097632D01*
X160455299Y-95185510D01*
X160654840Y-95284036D01*
X160933699Y-95401584D01*
X161309452Y-95546528D01*
X161475027Y-95608212D01*
X162550304Y-96006121D01*
X162700885Y-95822685D01*
X162884927Y-95562335D01*
X163017964Y-95302040D01*
X163083899Y-95076758D01*
X163086377Y-94985501D01*
X163014163Y-94824566D01*
X162828453Y-94658533D01*
X162796875Y-94636879D01*
X162605563Y-94485384D01*
X162535987Y-94368256D01*
X162587877Y-94284594D01*
X162681309Y-94249038D01*
X162888415Y-94148363D01*
X163011904Y-93985773D01*
X163035000Y-93866497D01*
X163016720Y-93768640D01*
X162937265Y-93733818D01*
X162821230Y-93735044D01*
X162651408Y-93757318D01*
X162534197Y-93793381D01*
X162531255Y-93795120D01*
X162434681Y-93784882D01*
X162310940Y-93658971D01*
X162215801Y-93512000D01*
X162170755Y-93390765D01*
X162126811Y-93207032D01*
X162116980Y-93152426D01*
X162073212Y-92888103D01*
X162506481Y-92844400D01*
X162880498Y-92776138D01*
X163231166Y-92658828D01*
X163289000Y-92632474D01*
X163604052Y-92523445D01*
X163962075Y-92466435D01*
X164320132Y-92463025D01*
X164635287Y-92514797D01*
G37*
X164635287Y-92514797D02*
X164793556Y-92577035D01*
X164973386Y-92647263D01*
X165130150Y-92634098D01*
X165164541Y-92622128D01*
X165379765Y-92598189D01*
X165572081Y-92675652D01*
X165717726Y-92828921D01*
X165792936Y-93032401D01*
X165773949Y-93260496D01*
X165769519Y-93273763D01*
X165738292Y-93407606D01*
X165746405Y-93554113D01*
X165798833Y-93754500D01*
X165843839Y-93889570D01*
X165906867Y-94092468D01*
X165948753Y-94290666D01*
X165973445Y-94518377D01*
X165984893Y-94809811D01*
X165987161Y-95131250D01*
X165985244Y-95475995D01*
X165975528Y-95734252D01*
X165951203Y-95946529D01*
X165905460Y-96153334D01*
X165831491Y-96395174D01*
X165722486Y-96712559D01*
X165720323Y-96718750D01*
X165609585Y-97050960D01*
X165509139Y-97379939D01*
X165430575Y-97666035D01*
X165387537Y-97857537D01*
X165325115Y-98449716D01*
X165330580Y-99091214D01*
X165399350Y-99742512D01*
X165526841Y-100364094D01*
X165708471Y-100916443D01*
X165754726Y-101023615D01*
X165853232Y-101244802D01*
X165903007Y-101382012D01*
X165908111Y-101466772D01*
X165872602Y-101530615D01*
X165826259Y-101579240D01*
X165733125Y-101698338D01*
X165700246Y-101782875D01*
X165709076Y-101864272D01*
X165734878Y-102054284D01*
X165775195Y-102336018D01*
X165827572Y-102692584D01*
X165889552Y-103107091D01*
X165958679Y-103562648D01*
X165966101Y-103611186D01*
X166034532Y-104071651D01*
X166093518Y-104494512D01*
X166140961Y-104862535D01*
X166174766Y-105158487D01*
X166192834Y-105365133D01*
X166193069Y-105465241D01*
X166192097Y-105468561D01*
X166163426Y-105510097D01*
X166101790Y-105539582D01*
X165988233Y-105559014D01*
X165803799Y-105570395D01*
X165529532Y-105575722D01*
X165164242Y-105577000D01*
X164789382Y-105575909D01*
X164523181Y-105571240D01*
X164347309Y-105560894D01*
X164243434Y-105542773D01*
X164193225Y-105514780D01*
X164178350Y-105474815D01*
X164178000Y-105464129D01*
X164238945Y-105250528D01*
X164416656Y-105068282D01*
X164703445Y-104923439D01*
X164960355Y-104848593D01*
X165266461Y-104778781D01*
X164923670Y-104542692D01*
X164681219Y-104357396D01*
X164388216Y-104106025D01*
X164076877Y-103818830D01*
X163779421Y-103526057D01*
X163528066Y-103257955D01*
X163421367Y-103132250D01*
X163217031Y-102878250D01*
X162964908Y-103164000D01*
X162712586Y-103507790D01*
X162479042Y-103932210D01*
X162286981Y-104390951D01*
X162171000Y-104783250D01*
X162113101Y-105030034D01*
X162059748Y-105247391D01*
X162022978Y-105386500D01*
X161976800Y-105545250D01*
X160950150Y-105562697D01*
X160513724Y-105566401D01*
X160200105Y-105560420D01*
X160005453Y-105544564D01*
X159925931Y-105518644D01*
X159923500Y-105511919D01*
X159981952Y-105309832D01*
X160138072Y-105118030D01*
X160363001Y-104957778D01*
X160627882Y-104850344D01*
X160867332Y-104816394D01*
X161010431Y-104806790D01*
X161059178Y-104755001D01*
X161046167Y-104622622D01*
X161043655Y-104608625D01*
X160971098Y-104037412D01*
X160957057Y-103478901D01*
X161001835Y-102975603D01*
X161030885Y-102822939D01*
X161161553Y-102380734D01*
X161352946Y-101920645D01*
X161583450Y-101487055D01*
X161831451Y-101124346D01*
X161895175Y-101048213D01*
X162154819Y-100753242D01*
X162056865Y-100259996D01*
X162001994Y-99966687D01*
X161951786Y-99669234D01*
X161916989Y-99431373D01*
X161916654Y-99428699D01*
X161888529Y-99234645D01*
X161854501Y-99139513D01*
X161795352Y-99115927D01*
X161708574Y-99132283D01*
X161485114Y-99184342D01*
X161194072Y-99246398D01*
X160862342Y-99313371D01*
X160516815Y-99380183D01*
X160184384Y-99441757D01*
X159891943Y-99493015D01*
X159666383Y-99528877D01*
X159534598Y-99544267D01*
X159525536Y-99544500D01*
X159404087Y-99512967D01*
X159208889Y-99429885D01*
X158971771Y-99312526D01*
X158724561Y-99178165D01*
X158499089Y-99044073D01*
X158327184Y-98927524D01*
X158241921Y-98847895D01*
X158263469Y-98776521D01*
X158360692Y-98672696D01*
X158383019Y-98654392D01*
X158479870Y-98588246D01*
X158582723Y-98552202D01*
X158719584Y-98545565D01*
X158918461Y-98567644D01*
X159207362Y-98617748D01*
X159284000Y-98632126D01*
X159370929Y-98639707D01*
X159474423Y-98626249D01*
X159611255Y-98585176D01*
X159798201Y-98509914D01*
X160052033Y-98393888D01*
X160389525Y-98230524D01*
X160696875Y-98078337D01*
X161052120Y-97899691D01*
X161365353Y-97738707D01*
X161619903Y-97604242D01*
X161799098Y-97505150D01*
X161886265Y-97450288D01*
X161892000Y-97443525D01*
X161843646Y-97395221D01*
X161708249Y-97282162D01*
X161500308Y-97115873D01*
X161234320Y-96907878D01*
X160924783Y-96669701D01*
X160776003Y-96556396D01*
X159660006Y-95709164D01*
X159379003Y-95131528D01*
X159260365Y-94880464D01*
X159166495Y-94668128D01*
X159109514Y-94522736D01*
X159098000Y-94477446D01*
X159158025Y-94425939D01*
X159328836Y-94402187D01*
X159392722Y-94401000D01*
X159594819Y-94415277D01*
X159733334Y-94476037D01*
X159867722Y-94607375D01*
X160034155Y-94797107D01*
X160204299Y-94989940D01*
X160223875Y-95012026D01*
X160317503Y-95097632D01*
X160455299Y-95185510D01*
X160654840Y-95284036D01*
X160933699Y-95401584D01*
X161309452Y-95546528D01*
X161475027Y-95608212D01*
X162550304Y-96006121D01*
X162700885Y-95822685D01*
X162884927Y-95562335D01*
X163017964Y-95302040D01*
X163083899Y-95076758D01*
X163086377Y-94985501D01*
X163014163Y-94824566D01*
X162828453Y-94658533D01*
X162796875Y-94636879D01*
X162605563Y-94485384D01*
X162535987Y-94368256D01*
X162587877Y-94284594D01*
X162681309Y-94249038D01*
X162888415Y-94148363D01*
X163011904Y-93985773D01*
X163035000Y-93866497D01*
X163016720Y-93768640D01*
X162937265Y-93733818D01*
X162821230Y-93735044D01*
X162651408Y-93757318D01*
X162534197Y-93793381D01*
X162531255Y-93795120D01*
X162434681Y-93784882D01*
X162310940Y-93658971D01*
X162215801Y-93512000D01*
X162170755Y-93390765D01*
X162126811Y-93207032D01*
X162116980Y-93152426D01*
X162073212Y-92888103D01*
X162506481Y-92844400D01*
X162880498Y-92776138D01*
X163231166Y-92658828D01*
X163289000Y-92632474D01*
X163604052Y-92523445D01*
X163962075Y-92466435D01*
X164320132Y-92463025D01*
X164635287Y-92514797D01*
%TD*%
M02*
