M48
; DRILL file {KiCad 5.1.9-73d0e3b20d~88~ubuntu20.10.1} date Tue Feb 23 00:56:52 2021
; FORMAT={-:-/ absolute / inch / decimal}
; #@! TF.CreationDate,2021-02-23T00:56:52+01:00
; #@! TF.GenerationSoftware,Kicad,Pcbnew,5.1.9-73d0e3b20d~88~ubuntu20.10.1
; #@! TF.FileFunction,Plated,1,2,PTH
FMAT,2
INCH
T1C0.0394
T2C0.0402
T3C0.1220
%
G90
G05
T1
X6.0236Y-4.5276
X6.1236Y-4.5276
X6.2236Y-4.5276
X6.3236Y-4.5276
X6.4236Y-4.5276
X6.5236Y-4.5276
X6.6236Y-4.5276
X6.7236Y-4.5276
X6.8236Y-4.5276
T3
X6.4173Y-4.0157
T2
G00X6.1907Y-3.963
M15
G01X6.203Y-3.9252
M16
G05
G00X6.203Y-4.1067
M15
G01X6.1907Y-4.0689
M16
G05
G00X6.2654Y-3.8404
M15
G01X6.2976Y-3.8171
M16
G05
G00X6.2976Y-4.2148
M15
G01X6.2654Y-4.1915
M16
G05
G00X6.4372Y-4.248
M15
G01X6.3974Y-4.248
M16
G05
G00X6.5696Y-3.8404
M15
G01X6.5375Y-3.8171
M16
G05
G00X6.5375Y-4.2148
M15
G01X6.5696Y-4.1915
M16
G05
G00X6.6443Y-3.9646
M15
G01X6.632Y-3.9268
M16
G05
G00X6.632Y-4.1067
M15
G01X6.6443Y-4.0689
M16
G05
T0
M30
