%TF.GenerationSoftware,KiCad,Pcbnew,5.1.8-db9833491~88~ubuntu16.04.1*%
%TF.CreationDate,2020-12-31T19:31:44+01:00*%
%TF.ProjectId,valve-adapter-noval,76616c76-652d-4616-9461-707465722d6e,rev?*%
%TF.SameCoordinates,Original*%
%TF.FileFunction,Legend,Top*%
%TF.FilePolarity,Positive*%
%FSLAX46Y46*%
G04 Gerber Fmt 4.6, Leading zero omitted, Abs format (unit mm)*
G04 Created by KiCad (PCBNEW 5.1.8-db9833491~88~ubuntu16.04.1) date 2020-12-31 19:31:44*
%MOMM*%
%LPD*%
G01*
G04 APERTURE LIST*
%ADD10C,0.200000*%
%ADD11C,0.300000*%
%ADD12C,0.010000*%
%ADD13C,0.120000*%
G04 APERTURE END LIST*
D10*
X174852380Y-112966666D02*
X175852380Y-112633333D01*
X174852380Y-112300000D01*
X175852380Y-111538095D02*
X175328571Y-111538095D01*
X175233333Y-111585714D01*
X175185714Y-111680952D01*
X175185714Y-111871428D01*
X175233333Y-111966666D01*
X175804761Y-111538095D02*
X175852380Y-111633333D01*
X175852380Y-111871428D01*
X175804761Y-111966666D01*
X175709523Y-112014285D01*
X175614285Y-112014285D01*
X175519047Y-111966666D01*
X175471428Y-111871428D01*
X175471428Y-111633333D01*
X175423809Y-111538095D01*
X175852380Y-110919047D02*
X175804761Y-111014285D01*
X175709523Y-111061904D01*
X174852380Y-111061904D01*
X175185714Y-110633333D02*
X175852380Y-110395238D01*
X175185714Y-110157142D01*
X175804761Y-109395238D02*
X175852380Y-109490476D01*
X175852380Y-109680952D01*
X175804761Y-109776190D01*
X175709523Y-109823809D01*
X175328571Y-109823809D01*
X175233333Y-109776190D01*
X175185714Y-109680952D01*
X175185714Y-109490476D01*
X175233333Y-109395238D01*
X175328571Y-109347619D01*
X175423809Y-109347619D01*
X175519047Y-109823809D01*
X175852380Y-108157142D02*
X174852380Y-108157142D01*
X175233333Y-108157142D02*
X175185714Y-108061904D01*
X175185714Y-107871428D01*
X175233333Y-107776190D01*
X175280952Y-107728571D01*
X175376190Y-107680952D01*
X175661904Y-107680952D01*
X175757142Y-107728571D01*
X175804761Y-107776190D01*
X175852380Y-107871428D01*
X175852380Y-108061904D01*
X175804761Y-108157142D01*
X175852380Y-107252380D02*
X175185714Y-107252380D01*
X175376190Y-107252380D02*
X175280952Y-107204761D01*
X175233333Y-107157142D01*
X175185714Y-107061904D01*
X175185714Y-106966666D01*
X175804761Y-106252380D02*
X175852380Y-106347619D01*
X175852380Y-106538095D01*
X175804761Y-106633333D01*
X175709523Y-106680952D01*
X175328571Y-106680952D01*
X175233333Y-106633333D01*
X175185714Y-106538095D01*
X175185714Y-106347619D01*
X175233333Y-106252380D01*
X175328571Y-106204761D01*
X175423809Y-106204761D01*
X175519047Y-106680952D01*
X175852380Y-105347619D02*
X175328571Y-105347619D01*
X175233333Y-105395238D01*
X175185714Y-105490476D01*
X175185714Y-105680952D01*
X175233333Y-105776190D01*
X175804761Y-105347619D02*
X175852380Y-105442857D01*
X175852380Y-105680952D01*
X175804761Y-105776190D01*
X175709523Y-105823809D01*
X175614285Y-105823809D01*
X175519047Y-105776190D01*
X175471428Y-105680952D01*
X175471428Y-105442857D01*
X175423809Y-105347619D01*
X175852380Y-104442857D02*
X174852380Y-104442857D01*
X175804761Y-104442857D02*
X175852380Y-104538095D01*
X175852380Y-104728571D01*
X175804761Y-104823809D01*
X175757142Y-104871428D01*
X175661904Y-104919047D01*
X175376190Y-104919047D01*
X175280952Y-104871428D01*
X175233333Y-104823809D01*
X175185714Y-104728571D01*
X175185714Y-104538095D01*
X175233333Y-104442857D01*
X175852380Y-103966666D02*
X174852380Y-103966666D01*
X175233333Y-103966666D02*
X175185714Y-103871428D01*
X175185714Y-103680952D01*
X175233333Y-103585714D01*
X175280952Y-103538095D01*
X175376190Y-103490476D01*
X175661904Y-103490476D01*
X175757142Y-103538095D01*
X175804761Y-103585714D01*
X175852380Y-103680952D01*
X175852380Y-103871428D01*
X175804761Y-103966666D01*
X175852380Y-102919047D02*
X175804761Y-103014285D01*
X175757142Y-103061904D01*
X175661904Y-103109523D01*
X175376190Y-103109523D01*
X175280952Y-103061904D01*
X175233333Y-103014285D01*
X175185714Y-102919047D01*
X175185714Y-102776190D01*
X175233333Y-102680952D01*
X175280952Y-102633333D01*
X175376190Y-102585714D01*
X175661904Y-102585714D01*
X175757142Y-102633333D01*
X175804761Y-102680952D01*
X175852380Y-102776190D01*
X175852380Y-102919047D01*
X175852380Y-101728571D02*
X175328571Y-101728571D01*
X175233333Y-101776190D01*
X175185714Y-101871428D01*
X175185714Y-102061904D01*
X175233333Y-102157142D01*
X175804761Y-101728571D02*
X175852380Y-101823809D01*
X175852380Y-102061904D01*
X175804761Y-102157142D01*
X175709523Y-102204761D01*
X175614285Y-102204761D01*
X175519047Y-102157142D01*
X175471428Y-102061904D01*
X175471428Y-101823809D01*
X175423809Y-101728571D01*
X175852380Y-101252380D02*
X175185714Y-101252380D01*
X175376190Y-101252380D02*
X175280952Y-101204761D01*
X175233333Y-101157142D01*
X175185714Y-101061904D01*
X175185714Y-100966666D01*
X175852380Y-100204761D02*
X174852380Y-100204761D01*
X175804761Y-100204761D02*
X175852380Y-100300000D01*
X175852380Y-100490476D01*
X175804761Y-100585714D01*
X175757142Y-100633333D01*
X175661904Y-100680952D01*
X175376190Y-100680952D01*
X175280952Y-100633333D01*
X175233333Y-100585714D01*
X175185714Y-100490476D01*
X175185714Y-100300000D01*
X175233333Y-100204761D01*
X175852380Y-98538095D02*
X175328571Y-98538095D01*
X175233333Y-98585714D01*
X175185714Y-98680952D01*
X175185714Y-98871428D01*
X175233333Y-98966666D01*
X175804761Y-98538095D02*
X175852380Y-98633333D01*
X175852380Y-98871428D01*
X175804761Y-98966666D01*
X175709523Y-99014285D01*
X175614285Y-99014285D01*
X175519047Y-98966666D01*
X175471428Y-98871428D01*
X175471428Y-98633333D01*
X175423809Y-98538095D01*
X175852380Y-97633333D02*
X174852380Y-97633333D01*
X175804761Y-97633333D02*
X175852380Y-97728571D01*
X175852380Y-97919047D01*
X175804761Y-98014285D01*
X175757142Y-98061904D01*
X175661904Y-98109523D01*
X175376190Y-98109523D01*
X175280952Y-98061904D01*
X175233333Y-98014285D01*
X175185714Y-97919047D01*
X175185714Y-97728571D01*
X175233333Y-97633333D01*
X175852380Y-96728571D02*
X175328571Y-96728571D01*
X175233333Y-96776190D01*
X175185714Y-96871428D01*
X175185714Y-97061904D01*
X175233333Y-97157142D01*
X175804761Y-96728571D02*
X175852380Y-96823809D01*
X175852380Y-97061904D01*
X175804761Y-97157142D01*
X175709523Y-97204761D01*
X175614285Y-97204761D01*
X175519047Y-97157142D01*
X175471428Y-97061904D01*
X175471428Y-96823809D01*
X175423809Y-96728571D01*
X175185714Y-96252380D02*
X176185714Y-96252380D01*
X175233333Y-96252380D02*
X175185714Y-96157142D01*
X175185714Y-95966666D01*
X175233333Y-95871428D01*
X175280952Y-95823809D01*
X175376190Y-95776190D01*
X175661904Y-95776190D01*
X175757142Y-95823809D01*
X175804761Y-95871428D01*
X175852380Y-95966666D01*
X175852380Y-96157142D01*
X175804761Y-96252380D01*
X175185714Y-95490476D02*
X175185714Y-95109523D01*
X174852380Y-95347619D02*
X175709523Y-95347619D01*
X175804761Y-95300000D01*
X175852380Y-95204761D01*
X175852380Y-95109523D01*
X175804761Y-94395238D02*
X175852380Y-94490476D01*
X175852380Y-94680952D01*
X175804761Y-94776190D01*
X175709523Y-94823809D01*
X175328571Y-94823809D01*
X175233333Y-94776190D01*
X175185714Y-94680952D01*
X175185714Y-94490476D01*
X175233333Y-94395238D01*
X175328571Y-94347619D01*
X175423809Y-94347619D01*
X175519047Y-94823809D01*
X175852380Y-93919047D02*
X175185714Y-93919047D01*
X175376190Y-93919047D02*
X175280952Y-93871428D01*
X175233333Y-93823809D01*
X175185714Y-93728571D01*
X175185714Y-93633333D01*
X150085714Y-110052380D02*
X150895238Y-110052380D01*
X150990476Y-110100000D01*
X151038095Y-110147619D01*
X151085714Y-110242857D01*
X151085714Y-110385714D01*
X151038095Y-110480952D01*
X150704761Y-110052380D02*
X150752380Y-110147619D01*
X150752380Y-110338095D01*
X150704761Y-110433333D01*
X150657142Y-110480952D01*
X150561904Y-110528571D01*
X150276190Y-110528571D01*
X150180952Y-110480952D01*
X150133333Y-110433333D01*
X150085714Y-110338095D01*
X150085714Y-110147619D01*
X150133333Y-110052380D01*
X150752380Y-109576190D02*
X150085714Y-109576190D01*
X149752380Y-109576190D02*
X149800000Y-109623809D01*
X149847619Y-109576190D01*
X149800000Y-109528571D01*
X149752380Y-109576190D01*
X149847619Y-109576190D01*
X150085714Y-109242857D02*
X150085714Y-108861904D01*
X149752380Y-109100000D02*
X150609523Y-109100000D01*
X150704761Y-109052380D01*
X150752380Y-108957142D01*
X150752380Y-108861904D01*
X150752380Y-108528571D02*
X149752380Y-108528571D01*
X150752380Y-108100000D02*
X150228571Y-108100000D01*
X150133333Y-108147619D01*
X150085714Y-108242857D01*
X150085714Y-108385714D01*
X150133333Y-108480952D01*
X150180952Y-108528571D01*
X150085714Y-107195238D02*
X150752380Y-107195238D01*
X150085714Y-107623809D02*
X150609523Y-107623809D01*
X150704761Y-107576190D01*
X150752380Y-107480952D01*
X150752380Y-107338095D01*
X150704761Y-107242857D01*
X150657142Y-107195238D01*
X150752380Y-106719047D02*
X149752380Y-106719047D01*
X150133333Y-106719047D02*
X150085714Y-106623809D01*
X150085714Y-106433333D01*
X150133333Y-106338095D01*
X150180952Y-106290476D01*
X150276190Y-106242857D01*
X150561904Y-106242857D01*
X150657142Y-106290476D01*
X150704761Y-106338095D01*
X150752380Y-106433333D01*
X150752380Y-106623809D01*
X150704761Y-106719047D01*
X150657142Y-105814285D02*
X150704761Y-105766666D01*
X150752380Y-105814285D01*
X150704761Y-105861904D01*
X150657142Y-105814285D01*
X150752380Y-105814285D01*
X150704761Y-104909523D02*
X150752380Y-105004761D01*
X150752380Y-105195238D01*
X150704761Y-105290476D01*
X150657142Y-105338095D01*
X150561904Y-105385714D01*
X150276190Y-105385714D01*
X150180952Y-105338095D01*
X150133333Y-105290476D01*
X150085714Y-105195238D01*
X150085714Y-105004761D01*
X150133333Y-104909523D01*
X150752380Y-104338095D02*
X150704761Y-104433333D01*
X150657142Y-104480952D01*
X150561904Y-104528571D01*
X150276190Y-104528571D01*
X150180952Y-104480952D01*
X150133333Y-104433333D01*
X150085714Y-104338095D01*
X150085714Y-104195238D01*
X150133333Y-104100000D01*
X150180952Y-104052380D01*
X150276190Y-104004761D01*
X150561904Y-104004761D01*
X150657142Y-104052380D01*
X150704761Y-104100000D01*
X150752380Y-104195238D01*
X150752380Y-104338095D01*
X150752380Y-103576190D02*
X150085714Y-103576190D01*
X150180952Y-103576190D02*
X150133333Y-103528571D01*
X150085714Y-103433333D01*
X150085714Y-103290476D01*
X150133333Y-103195238D01*
X150228571Y-103147619D01*
X150752380Y-103147619D01*
X150228571Y-103147619D02*
X150133333Y-103100000D01*
X150085714Y-103004761D01*
X150085714Y-102861904D01*
X150133333Y-102766666D01*
X150228571Y-102719047D01*
X150752380Y-102719047D01*
X149704761Y-101528571D02*
X150990476Y-102385714D01*
X150085714Y-101195238D02*
X151085714Y-101195238D01*
X150133333Y-101195238D02*
X150085714Y-101100000D01*
X150085714Y-100909523D01*
X150133333Y-100814285D01*
X150180952Y-100766666D01*
X150276190Y-100719047D01*
X150561904Y-100719047D01*
X150657142Y-100766666D01*
X150704761Y-100814285D01*
X150752380Y-100909523D01*
X150752380Y-101100000D01*
X150704761Y-101195238D01*
X150752380Y-100147619D02*
X150704761Y-100242857D01*
X150657142Y-100290476D01*
X150561904Y-100338095D01*
X150276190Y-100338095D01*
X150180952Y-100290476D01*
X150133333Y-100242857D01*
X150085714Y-100147619D01*
X150085714Y-100004761D01*
X150133333Y-99909523D01*
X150180952Y-99861904D01*
X150276190Y-99814285D01*
X150561904Y-99814285D01*
X150657142Y-99861904D01*
X150704761Y-99909523D01*
X150752380Y-100004761D01*
X150752380Y-100147619D01*
X150752380Y-99242857D02*
X150704761Y-99338095D01*
X150609523Y-99385714D01*
X149752380Y-99385714D01*
X150085714Y-98957142D02*
X150752380Y-98719047D01*
X150085714Y-98480952D02*
X150752380Y-98719047D01*
X150990476Y-98814285D01*
X151038095Y-98861904D01*
X151085714Y-98957142D01*
X150752380Y-98100000D02*
X149752380Y-98100000D01*
X150371428Y-98004761D02*
X150752380Y-97719047D01*
X150085714Y-97719047D02*
X150466666Y-98100000D01*
X150752380Y-97290476D02*
X150085714Y-97290476D01*
X149752380Y-97290476D02*
X149800000Y-97338095D01*
X149847619Y-97290476D01*
X149800000Y-97242857D01*
X149752380Y-97290476D01*
X149847619Y-97290476D01*
X150085714Y-96957142D02*
X150085714Y-96576190D01*
X149752380Y-96814285D02*
X150609523Y-96814285D01*
X150704761Y-96766666D01*
X150752380Y-96671428D01*
X150752380Y-96576190D01*
X173009523Y-119352380D02*
X173200000Y-119352380D01*
X173295238Y-119304761D01*
X173342857Y-119257142D01*
X173438095Y-119114285D01*
X173485714Y-118923809D01*
X173485714Y-118542857D01*
X173438095Y-118447619D01*
X173390476Y-118400000D01*
X173295238Y-118352380D01*
X173104761Y-118352380D01*
X173009523Y-118400000D01*
X172961904Y-118447619D01*
X172914285Y-118542857D01*
X172914285Y-118780952D01*
X172961904Y-118876190D01*
X173009523Y-118923809D01*
X173104761Y-118971428D01*
X173295238Y-118971428D01*
X173390476Y-118923809D01*
X173438095Y-118876190D01*
X173485714Y-118780952D01*
X170504761Y-118780952D02*
X170409523Y-118733333D01*
X170361904Y-118685714D01*
X170314285Y-118590476D01*
X170314285Y-118542857D01*
X170361904Y-118447619D01*
X170409523Y-118400000D01*
X170504761Y-118352380D01*
X170695238Y-118352380D01*
X170790476Y-118400000D01*
X170838095Y-118447619D01*
X170885714Y-118542857D01*
X170885714Y-118590476D01*
X170838095Y-118685714D01*
X170790476Y-118733333D01*
X170695238Y-118780952D01*
X170504761Y-118780952D01*
X170409523Y-118828571D01*
X170361904Y-118876190D01*
X170314285Y-118971428D01*
X170314285Y-119161904D01*
X170361904Y-119257142D01*
X170409523Y-119304761D01*
X170504761Y-119352380D01*
X170695238Y-119352380D01*
X170790476Y-119304761D01*
X170838095Y-119257142D01*
X170885714Y-119161904D01*
X170885714Y-118971428D01*
X170838095Y-118876190D01*
X170790476Y-118828571D01*
X170695238Y-118780952D01*
X167766666Y-118352380D02*
X168433333Y-118352380D01*
X168004761Y-119352380D01*
X165690476Y-118352380D02*
X165500000Y-118352380D01*
X165404761Y-118400000D01*
X165357142Y-118447619D01*
X165261904Y-118590476D01*
X165214285Y-118780952D01*
X165214285Y-119161904D01*
X165261904Y-119257142D01*
X165309523Y-119304761D01*
X165404761Y-119352380D01*
X165595238Y-119352380D01*
X165690476Y-119304761D01*
X165738095Y-119257142D01*
X165785714Y-119161904D01*
X165785714Y-118923809D01*
X165738095Y-118828571D01*
X165690476Y-118780952D01*
X165595238Y-118733333D01*
X165404761Y-118733333D01*
X165309523Y-118780952D01*
X165261904Y-118828571D01*
X165214285Y-118923809D01*
X163238095Y-118352380D02*
X162761904Y-118352380D01*
X162714285Y-118828571D01*
X162761904Y-118780952D01*
X162857142Y-118733333D01*
X163095238Y-118733333D01*
X163190476Y-118780952D01*
X163238095Y-118828571D01*
X163285714Y-118923809D01*
X163285714Y-119161904D01*
X163238095Y-119257142D01*
X163190476Y-119304761D01*
X163095238Y-119352380D01*
X162857142Y-119352380D01*
X162761904Y-119304761D01*
X162714285Y-119257142D01*
X160590476Y-118685714D02*
X160590476Y-119352380D01*
X160352380Y-118304761D02*
X160114285Y-119019047D01*
X160733333Y-119019047D01*
X157566666Y-118352380D02*
X158185714Y-118352380D01*
X157852380Y-118733333D01*
X157995238Y-118733333D01*
X158090476Y-118780952D01*
X158138095Y-118828571D01*
X158185714Y-118923809D01*
X158185714Y-119161904D01*
X158138095Y-119257142D01*
X158090476Y-119304761D01*
X157995238Y-119352380D01*
X157709523Y-119352380D01*
X157614285Y-119304761D01*
X157566666Y-119257142D01*
X155114285Y-118447619D02*
X155161904Y-118400000D01*
X155257142Y-118352380D01*
X155495238Y-118352380D01*
X155590476Y-118400000D01*
X155638095Y-118447619D01*
X155685714Y-118542857D01*
X155685714Y-118638095D01*
X155638095Y-118780952D01*
X155066666Y-119352380D01*
X155685714Y-119352380D01*
X153185714Y-119352380D02*
X152614285Y-119352380D01*
X152900000Y-119352380D02*
X152900000Y-118352380D01*
X152804761Y-118495238D01*
X152709523Y-118590476D01*
X152614285Y-118638095D01*
D11*
X153642857Y-88678571D02*
X153642857Y-87178571D01*
X154500000Y-88678571D01*
X154500000Y-87178571D01*
X155428571Y-88678571D02*
X155285714Y-88607142D01*
X155214285Y-88535714D01*
X155142857Y-88392857D01*
X155142857Y-87964285D01*
X155214285Y-87821428D01*
X155285714Y-87750000D01*
X155428571Y-87678571D01*
X155642857Y-87678571D01*
X155785714Y-87750000D01*
X155857142Y-87821428D01*
X155928571Y-87964285D01*
X155928571Y-88392857D01*
X155857142Y-88535714D01*
X155785714Y-88607142D01*
X155642857Y-88678571D01*
X155428571Y-88678571D01*
X156428571Y-87678571D02*
X156785714Y-88678571D01*
X157142857Y-87678571D01*
X158357142Y-88678571D02*
X158357142Y-87892857D01*
X158285714Y-87750000D01*
X158142857Y-87678571D01*
X157857142Y-87678571D01*
X157714285Y-87750000D01*
X158357142Y-88607142D02*
X158214285Y-88678571D01*
X157857142Y-88678571D01*
X157714285Y-88607142D01*
X157642857Y-88464285D01*
X157642857Y-88321428D01*
X157714285Y-88178571D01*
X157857142Y-88107142D01*
X158214285Y-88107142D01*
X158357142Y-88035714D01*
X159285714Y-88678571D02*
X159142857Y-88607142D01*
X159071428Y-88464285D01*
X159071428Y-87178571D01*
X161500000Y-87892857D02*
X161714285Y-87964285D01*
X161785714Y-88035714D01*
X161857142Y-88178571D01*
X161857142Y-88392857D01*
X161785714Y-88535714D01*
X161714285Y-88607142D01*
X161571428Y-88678571D01*
X161000000Y-88678571D01*
X161000000Y-87178571D01*
X161500000Y-87178571D01*
X161642857Y-87250000D01*
X161714285Y-87321428D01*
X161785714Y-87464285D01*
X161785714Y-87607142D01*
X161714285Y-87750000D01*
X161642857Y-87821428D01*
X161500000Y-87892857D01*
X161000000Y-87892857D01*
X162571428Y-88678571D02*
X162857142Y-88678571D01*
X163000000Y-88607142D01*
X163071428Y-88535714D01*
X163214285Y-88321428D01*
X163285714Y-88035714D01*
X163285714Y-87464285D01*
X163214285Y-87321428D01*
X163142857Y-87250000D01*
X163000000Y-87178571D01*
X162714285Y-87178571D01*
X162571428Y-87250000D01*
X162500000Y-87321428D01*
X162428571Y-87464285D01*
X162428571Y-87821428D01*
X162500000Y-87964285D01*
X162571428Y-88035714D01*
X162714285Y-88107142D01*
X163000000Y-88107142D01*
X163142857Y-88035714D01*
X163214285Y-87964285D01*
X163285714Y-87821428D01*
X163857142Y-88250000D02*
X164571428Y-88250000D01*
X163714285Y-88678571D02*
X164214285Y-87178571D01*
X164714285Y-88678571D01*
X166428571Y-88678571D02*
X166714285Y-88678571D01*
X166857142Y-88607142D01*
X166928571Y-88535714D01*
X167071428Y-88321428D01*
X167142857Y-88035714D01*
X167142857Y-87464285D01*
X167071428Y-87321428D01*
X167000000Y-87250000D01*
X166857142Y-87178571D01*
X166571428Y-87178571D01*
X166428571Y-87250000D01*
X166357142Y-87321428D01*
X166285714Y-87464285D01*
X166285714Y-87821428D01*
X166357142Y-87964285D01*
X166428571Y-88035714D01*
X166571428Y-88107142D01*
X166857142Y-88107142D01*
X167000000Y-88035714D01*
X167071428Y-87964285D01*
X167142857Y-87821428D01*
X167785714Y-88107142D02*
X168928571Y-88107142D01*
X169642857Y-87678571D02*
X169642857Y-89178571D01*
X169642857Y-87750000D02*
X169785714Y-87678571D01*
X170071428Y-87678571D01*
X170214285Y-87750000D01*
X170285714Y-87821428D01*
X170357142Y-87964285D01*
X170357142Y-88392857D01*
X170285714Y-88535714D01*
X170214285Y-88607142D01*
X170071428Y-88678571D01*
X169785714Y-88678571D01*
X169642857Y-88607142D01*
X171000000Y-88678571D02*
X171000000Y-87678571D01*
X171000000Y-87178571D02*
X170928571Y-87250000D01*
X171000000Y-87321428D01*
X171071428Y-87250000D01*
X171000000Y-87178571D01*
X171000000Y-87321428D01*
X171714285Y-87678571D02*
X171714285Y-88678571D01*
X171714285Y-87821428D02*
X171785714Y-87750000D01*
X171928571Y-87678571D01*
X172142857Y-87678571D01*
X172285714Y-87750000D01*
X172357142Y-87892857D01*
X172357142Y-88678571D01*
D12*
%TO.C,G\u002A\u002A\u002A*%
G36*
X164535287Y-92014797D02*
G01*
X164693556Y-92077035D01*
X164873386Y-92147263D01*
X165030150Y-92134098D01*
X165064541Y-92122128D01*
X165279765Y-92098189D01*
X165472081Y-92175652D01*
X165617726Y-92328921D01*
X165692936Y-92532401D01*
X165673949Y-92760496D01*
X165669519Y-92773763D01*
X165638292Y-92907606D01*
X165646405Y-93054113D01*
X165698833Y-93254500D01*
X165743839Y-93389570D01*
X165806867Y-93592468D01*
X165848753Y-93790666D01*
X165873445Y-94018377D01*
X165884893Y-94309811D01*
X165887161Y-94631250D01*
X165885244Y-94975995D01*
X165875528Y-95234252D01*
X165851203Y-95446529D01*
X165805460Y-95653334D01*
X165731491Y-95895174D01*
X165622486Y-96212559D01*
X165620323Y-96218750D01*
X165509585Y-96550960D01*
X165409139Y-96879939D01*
X165330575Y-97166035D01*
X165287537Y-97357537D01*
X165225115Y-97949716D01*
X165230580Y-98591214D01*
X165299350Y-99242512D01*
X165426841Y-99864094D01*
X165608471Y-100416443D01*
X165654726Y-100523615D01*
X165753232Y-100744802D01*
X165803007Y-100882012D01*
X165808111Y-100966772D01*
X165772602Y-101030615D01*
X165726259Y-101079240D01*
X165633125Y-101198338D01*
X165600246Y-101282875D01*
X165609076Y-101364272D01*
X165634878Y-101554284D01*
X165675195Y-101836018D01*
X165727572Y-102192584D01*
X165789552Y-102607091D01*
X165858679Y-103062648D01*
X165866101Y-103111186D01*
X165934532Y-103571651D01*
X165993518Y-103994512D01*
X166040961Y-104362535D01*
X166074766Y-104658487D01*
X166092834Y-104865133D01*
X166093069Y-104965241D01*
X166092097Y-104968561D01*
X166063426Y-105010097D01*
X166001790Y-105039582D01*
X165888233Y-105059014D01*
X165703799Y-105070395D01*
X165429532Y-105075722D01*
X165064242Y-105077000D01*
X164689382Y-105075909D01*
X164423181Y-105071240D01*
X164247309Y-105060894D01*
X164143434Y-105042773D01*
X164093225Y-105014780D01*
X164078350Y-104974815D01*
X164078000Y-104964129D01*
X164138945Y-104750528D01*
X164316656Y-104568282D01*
X164603445Y-104423439D01*
X164860355Y-104348593D01*
X165166461Y-104278781D01*
X164823670Y-104042692D01*
X164581219Y-103857396D01*
X164288216Y-103606025D01*
X163976877Y-103318830D01*
X163679421Y-103026057D01*
X163428066Y-102757955D01*
X163321367Y-102632250D01*
X163117031Y-102378250D01*
X162864908Y-102664000D01*
X162612586Y-103007790D01*
X162379042Y-103432210D01*
X162186981Y-103890951D01*
X162071000Y-104283250D01*
X162013101Y-104530034D01*
X161959748Y-104747391D01*
X161922978Y-104886500D01*
X161876800Y-105045250D01*
X160850150Y-105062697D01*
X160413724Y-105066401D01*
X160100105Y-105060420D01*
X159905453Y-105044564D01*
X159825931Y-105018644D01*
X159823500Y-105011919D01*
X159881952Y-104809832D01*
X160038072Y-104618030D01*
X160263001Y-104457778D01*
X160527882Y-104350344D01*
X160767332Y-104316394D01*
X160910431Y-104306790D01*
X160959178Y-104255001D01*
X160946167Y-104122622D01*
X160943655Y-104108625D01*
X160871098Y-103537412D01*
X160857057Y-102978901D01*
X160901835Y-102475603D01*
X160930885Y-102322939D01*
X161061553Y-101880734D01*
X161252946Y-101420645D01*
X161483450Y-100987055D01*
X161731451Y-100624346D01*
X161795175Y-100548213D01*
X162054819Y-100253242D01*
X161956865Y-99759996D01*
X161901994Y-99466687D01*
X161851786Y-99169234D01*
X161816989Y-98931373D01*
X161816654Y-98928699D01*
X161788529Y-98734645D01*
X161754501Y-98639513D01*
X161695352Y-98615927D01*
X161608574Y-98632283D01*
X161385114Y-98684342D01*
X161094072Y-98746398D01*
X160762342Y-98813371D01*
X160416815Y-98880183D01*
X160084384Y-98941757D01*
X159791943Y-98993015D01*
X159566383Y-99028877D01*
X159434598Y-99044267D01*
X159425536Y-99044500D01*
X159304087Y-99012967D01*
X159108889Y-98929885D01*
X158871771Y-98812526D01*
X158624561Y-98678165D01*
X158399089Y-98544073D01*
X158227184Y-98427524D01*
X158141921Y-98347895D01*
X158163469Y-98276521D01*
X158260692Y-98172696D01*
X158283019Y-98154392D01*
X158379870Y-98088246D01*
X158482723Y-98052202D01*
X158619584Y-98045565D01*
X158818461Y-98067644D01*
X159107362Y-98117748D01*
X159184000Y-98132126D01*
X159270929Y-98139707D01*
X159374423Y-98126249D01*
X159511255Y-98085176D01*
X159698201Y-98009914D01*
X159952033Y-97893888D01*
X160289525Y-97730524D01*
X160596875Y-97578337D01*
X160952120Y-97399691D01*
X161265353Y-97238707D01*
X161519903Y-97104242D01*
X161699098Y-97005150D01*
X161786265Y-96950288D01*
X161792000Y-96943525D01*
X161743646Y-96895221D01*
X161608249Y-96782162D01*
X161400308Y-96615873D01*
X161134320Y-96407878D01*
X160824783Y-96169701D01*
X160676003Y-96056396D01*
X159560006Y-95209164D01*
X159279003Y-94631528D01*
X159160365Y-94380464D01*
X159066495Y-94168128D01*
X159009514Y-94022736D01*
X158998000Y-93977446D01*
X159058025Y-93925939D01*
X159228836Y-93902187D01*
X159292722Y-93901000D01*
X159494819Y-93915277D01*
X159633334Y-93976037D01*
X159767722Y-94107375D01*
X159934155Y-94297107D01*
X160104299Y-94489940D01*
X160123875Y-94512026D01*
X160217503Y-94597632D01*
X160355299Y-94685510D01*
X160554840Y-94784036D01*
X160833699Y-94901584D01*
X161209452Y-95046528D01*
X161375027Y-95108212D01*
X162450304Y-95506121D01*
X162600885Y-95322685D01*
X162784927Y-95062335D01*
X162917964Y-94802040D01*
X162983899Y-94576758D01*
X162986377Y-94485501D01*
X162914163Y-94324566D01*
X162728453Y-94158533D01*
X162696875Y-94136879D01*
X162505563Y-93985384D01*
X162435987Y-93868256D01*
X162487877Y-93784594D01*
X162581309Y-93749038D01*
X162788415Y-93648363D01*
X162911904Y-93485773D01*
X162935000Y-93366497D01*
X162916720Y-93268640D01*
X162837265Y-93233818D01*
X162721230Y-93235044D01*
X162551408Y-93257318D01*
X162434197Y-93293381D01*
X162431255Y-93295120D01*
X162334681Y-93284882D01*
X162210940Y-93158971D01*
X162115801Y-93012000D01*
X162070755Y-92890765D01*
X162026811Y-92707032D01*
X162016980Y-92652426D01*
X161973212Y-92388103D01*
X162406481Y-92344400D01*
X162780498Y-92276138D01*
X163131166Y-92158828D01*
X163189000Y-92132474D01*
X163504052Y-92023445D01*
X163862075Y-91966435D01*
X164220132Y-91963025D01*
X164535287Y-92014797D01*
G37*
X164535287Y-92014797D02*
X164693556Y-92077035D01*
X164873386Y-92147263D01*
X165030150Y-92134098D01*
X165064541Y-92122128D01*
X165279765Y-92098189D01*
X165472081Y-92175652D01*
X165617726Y-92328921D01*
X165692936Y-92532401D01*
X165673949Y-92760496D01*
X165669519Y-92773763D01*
X165638292Y-92907606D01*
X165646405Y-93054113D01*
X165698833Y-93254500D01*
X165743839Y-93389570D01*
X165806867Y-93592468D01*
X165848753Y-93790666D01*
X165873445Y-94018377D01*
X165884893Y-94309811D01*
X165887161Y-94631250D01*
X165885244Y-94975995D01*
X165875528Y-95234252D01*
X165851203Y-95446529D01*
X165805460Y-95653334D01*
X165731491Y-95895174D01*
X165622486Y-96212559D01*
X165620323Y-96218750D01*
X165509585Y-96550960D01*
X165409139Y-96879939D01*
X165330575Y-97166035D01*
X165287537Y-97357537D01*
X165225115Y-97949716D01*
X165230580Y-98591214D01*
X165299350Y-99242512D01*
X165426841Y-99864094D01*
X165608471Y-100416443D01*
X165654726Y-100523615D01*
X165753232Y-100744802D01*
X165803007Y-100882012D01*
X165808111Y-100966772D01*
X165772602Y-101030615D01*
X165726259Y-101079240D01*
X165633125Y-101198338D01*
X165600246Y-101282875D01*
X165609076Y-101364272D01*
X165634878Y-101554284D01*
X165675195Y-101836018D01*
X165727572Y-102192584D01*
X165789552Y-102607091D01*
X165858679Y-103062648D01*
X165866101Y-103111186D01*
X165934532Y-103571651D01*
X165993518Y-103994512D01*
X166040961Y-104362535D01*
X166074766Y-104658487D01*
X166092834Y-104865133D01*
X166093069Y-104965241D01*
X166092097Y-104968561D01*
X166063426Y-105010097D01*
X166001790Y-105039582D01*
X165888233Y-105059014D01*
X165703799Y-105070395D01*
X165429532Y-105075722D01*
X165064242Y-105077000D01*
X164689382Y-105075909D01*
X164423181Y-105071240D01*
X164247309Y-105060894D01*
X164143434Y-105042773D01*
X164093225Y-105014780D01*
X164078350Y-104974815D01*
X164078000Y-104964129D01*
X164138945Y-104750528D01*
X164316656Y-104568282D01*
X164603445Y-104423439D01*
X164860355Y-104348593D01*
X165166461Y-104278781D01*
X164823670Y-104042692D01*
X164581219Y-103857396D01*
X164288216Y-103606025D01*
X163976877Y-103318830D01*
X163679421Y-103026057D01*
X163428066Y-102757955D01*
X163321367Y-102632250D01*
X163117031Y-102378250D01*
X162864908Y-102664000D01*
X162612586Y-103007790D01*
X162379042Y-103432210D01*
X162186981Y-103890951D01*
X162071000Y-104283250D01*
X162013101Y-104530034D01*
X161959748Y-104747391D01*
X161922978Y-104886500D01*
X161876800Y-105045250D01*
X160850150Y-105062697D01*
X160413724Y-105066401D01*
X160100105Y-105060420D01*
X159905453Y-105044564D01*
X159825931Y-105018644D01*
X159823500Y-105011919D01*
X159881952Y-104809832D01*
X160038072Y-104618030D01*
X160263001Y-104457778D01*
X160527882Y-104350344D01*
X160767332Y-104316394D01*
X160910431Y-104306790D01*
X160959178Y-104255001D01*
X160946167Y-104122622D01*
X160943655Y-104108625D01*
X160871098Y-103537412D01*
X160857057Y-102978901D01*
X160901835Y-102475603D01*
X160930885Y-102322939D01*
X161061553Y-101880734D01*
X161252946Y-101420645D01*
X161483450Y-100987055D01*
X161731451Y-100624346D01*
X161795175Y-100548213D01*
X162054819Y-100253242D01*
X161956865Y-99759996D01*
X161901994Y-99466687D01*
X161851786Y-99169234D01*
X161816989Y-98931373D01*
X161816654Y-98928699D01*
X161788529Y-98734645D01*
X161754501Y-98639513D01*
X161695352Y-98615927D01*
X161608574Y-98632283D01*
X161385114Y-98684342D01*
X161094072Y-98746398D01*
X160762342Y-98813371D01*
X160416815Y-98880183D01*
X160084384Y-98941757D01*
X159791943Y-98993015D01*
X159566383Y-99028877D01*
X159434598Y-99044267D01*
X159425536Y-99044500D01*
X159304087Y-99012967D01*
X159108889Y-98929885D01*
X158871771Y-98812526D01*
X158624561Y-98678165D01*
X158399089Y-98544073D01*
X158227184Y-98427524D01*
X158141921Y-98347895D01*
X158163469Y-98276521D01*
X158260692Y-98172696D01*
X158283019Y-98154392D01*
X158379870Y-98088246D01*
X158482723Y-98052202D01*
X158619584Y-98045565D01*
X158818461Y-98067644D01*
X159107362Y-98117748D01*
X159184000Y-98132126D01*
X159270929Y-98139707D01*
X159374423Y-98126249D01*
X159511255Y-98085176D01*
X159698201Y-98009914D01*
X159952033Y-97893888D01*
X160289525Y-97730524D01*
X160596875Y-97578337D01*
X160952120Y-97399691D01*
X161265353Y-97238707D01*
X161519903Y-97104242D01*
X161699098Y-97005150D01*
X161786265Y-96950288D01*
X161792000Y-96943525D01*
X161743646Y-96895221D01*
X161608249Y-96782162D01*
X161400308Y-96615873D01*
X161134320Y-96407878D01*
X160824783Y-96169701D01*
X160676003Y-96056396D01*
X159560006Y-95209164D01*
X159279003Y-94631528D01*
X159160365Y-94380464D01*
X159066495Y-94168128D01*
X159009514Y-94022736D01*
X158998000Y-93977446D01*
X159058025Y-93925939D01*
X159228836Y-93902187D01*
X159292722Y-93901000D01*
X159494819Y-93915277D01*
X159633334Y-93976037D01*
X159767722Y-94107375D01*
X159934155Y-94297107D01*
X160104299Y-94489940D01*
X160123875Y-94512026D01*
X160217503Y-94597632D01*
X160355299Y-94685510D01*
X160554840Y-94784036D01*
X160833699Y-94901584D01*
X161209452Y-95046528D01*
X161375027Y-95108212D01*
X162450304Y-95506121D01*
X162600885Y-95322685D01*
X162784927Y-95062335D01*
X162917964Y-94802040D01*
X162983899Y-94576758D01*
X162986377Y-94485501D01*
X162914163Y-94324566D01*
X162728453Y-94158533D01*
X162696875Y-94136879D01*
X162505563Y-93985384D01*
X162435987Y-93868256D01*
X162487877Y-93784594D01*
X162581309Y-93749038D01*
X162788415Y-93648363D01*
X162911904Y-93485773D01*
X162935000Y-93366497D01*
X162916720Y-93268640D01*
X162837265Y-93233818D01*
X162721230Y-93235044D01*
X162551408Y-93257318D01*
X162434197Y-93293381D01*
X162431255Y-93295120D01*
X162334681Y-93284882D01*
X162210940Y-93158971D01*
X162115801Y-93012000D01*
X162070755Y-92890765D01*
X162026811Y-92707032D01*
X162016980Y-92652426D01*
X161973212Y-92388103D01*
X162406481Y-92344400D01*
X162780498Y-92276138D01*
X163131166Y-92158828D01*
X163189000Y-92132474D01*
X163504052Y-92023445D01*
X163862075Y-91966435D01*
X164220132Y-91963025D01*
X164535287Y-92014797D01*
D13*
%TO.C,J1*%
X151518219Y-117439834D02*
X151518219Y-116109834D01*
X152848219Y-117439834D02*
X151518219Y-117439834D01*
X154118219Y-117439834D02*
X154118219Y-114779834D01*
X154118219Y-114779834D02*
X174498219Y-114779834D01*
X154118219Y-117439834D02*
X174498219Y-117439834D01*
X174498219Y-117439834D02*
X174498219Y-114779834D01*
%TO.C,U1*%
X174311129Y-99351590D02*
G75*
G03*
X174311129Y-99351590I-11305418J0D01*
G01*
%TD*%
M02*
